<svg viewBox="0 0 1000 285.714" xmlns="http://www.w3.org/2000/svg" width="2500" height="714"><path d="M425.397 285.714h-57.143V0H558.73c59.524 0 107.937 48.413 107.937 107.937S618.254 215.873 558.73 215.873H425.397zm0-126.984H558.73c27.937 0 50.794-22.857 50.794-50.793s-22.857-50.794-50.794-50.794H425.397zm-123.81 126.984h-57.143V169.841H57.143v115.873H0V0h57.143v112.698h187.301V0h57.143v285.714zm476.19-204.762h-57.142V0H1000v57.143H777.778z"/><path d="M1000 285.714H720.635V107.937H1000v57.142H777.778v63.492H1000z" fill="#03a883"/></svg>